<?xml version="1.0" encoding="UTF-8" standalone="no"?>
<!-- Uploaded to: SVG Repo, www.svgrepo.com, Generator: SVG Repo Mixer Tools -->

<svg
   width="633.33331"
   height="633.33331"
   viewBox="0 0 37.999999 37.999999"
   id="a"
   version="1.1"
   sodipodi:docname="bereal.svg"
   xmlns:inkscape="http://www.inkscape.org/namespaces/inkscape"
   xmlns:sodipodi="http://sodipodi.sourceforge.net/DTD/sodipodi-0.dtd"
   xmlns="http://www.w3.org/2000/svg"
   xmlns:svg="http://www.w3.org/2000/svg">
  <sodipodi:namedview
     id="namedview8"
     pagecolor="#ffffff"
     bordercolor="#000000"
     borderopacity="0.25"
     inkscape:showpageshadow="2"
     inkscape:pageopacity="0.0"
     inkscape:pagecheckerboard="0"
     inkscape:deskcolor="#d1d1d1" />
  <defs
     id="defs1">
    <style
       id="style1">.b{fill:none;stroke:#000000;stroke-linecap:round;stroke-linejoin:round;}</style>
  </defs>
  <path
     class="b"
     d="m 35.5,0.5 h -33 c -1.1046,0 -2,0.8954 -2,2 v 33 c 0,1.1046 0.8954,2 2,2 h 33 c 1.1046,0 2,-0.8954 2,-2 v -33 c 0,-1.1046 -0.8954,-2 -2,-2 z"
     id="path1"
     style="fill:#ffffff;fill-opacity:1" />
  <g
     id="g8"
     transform="translate(-5,-5)">
    <g
       id="g2">
      <path
         class="b"
         d="m 20.8368,27.7715 v -7.5429 h 2.4694 c 1.3961,0 2.5278,1.1342 2.5278,2.5332 0,1.399 -1.1317,2.5332 -2.5278,2.5332 h -2.4694"
         id="path2" />
      <line
         class="b"
         x1="23.3062"
         y1="25.295"
         x2="25.7754"
         y2="27.7696"
         id="line2" />
    </g>
    <path
       class="b"
       d="m 18.7569,26.8198 c -0.3248,0.5685 -0.9369,0.9516 -1.6385,0.9516 v 0 c -1.0415,0 -1.8857,-0.8443 -1.8857,-1.8857 V 24.66 c 0,-1.0415 0.8443,-1.8857 1.8857,-1.8857 v 0 c 1.0415,0 1.8857,0.8443 1.8857,1.8857 v 0.6129 c 0,0 -3.7715,0 -3.7715,0"
       id="path3" />
    <path
       class="b"
       d="m 30.8201,26.8198 c -0.3248,0.5685 -0.9369,0.9516 -1.6385,0.9516 v 0 c -1.0415,0 -1.8857,-0.8443 -1.8857,-1.8857 V 24.66 c 0,-1.0415 0.8443,-1.8857 1.8857,-1.8857 v 0 c 1.0415,0 1.8857,0.8443 1.8857,1.8857 v 0.6129 c 0,0 -3.7715,0 -3.7715,0"
       id="path4" />
    <path
       class="b"
       d="m 38.2743,20.2285 v 6.6001 c 0,0.5207 0.4221,0.9429 0.9429,0.9429 h 0.2829"
       id="path5" />
    <g
       id="g6">
      <path
         class="b"
         d="m 36.5489,25.8857 c 0,1.0415 -0.8443,1.8857 -1.8857,1.8857 v 0 c -1.0415,0 -1.8857,-0.8443 -1.8857,-1.8857 V 24.66 c 0,-1.0415 0.8443,-1.8857 1.8857,-1.8857 v 0 c 1.0415,0 1.8857,0.8443 1.8857,1.8857"
         id="path6" />
      <line
         class="b"
         x1="36.548901"
         y1="27.7715"
         x2="36.548901"
         y2="22.7743"
         id="line6" />
    </g>
    <g
       id="g7">
      <path
         class="b"
         d="m 11.6115,24 c 1.0415,0 1.8857,0.8443 1.8857,1.8857 0,1.0414 -0.8443,1.8857 -1.8857,1.8857 H 8.5 v -7.5429 h 3.1115 c 1.0415,0 1.8857,0.8443 1.8857,1.8857 0,1.0414 -0.8443,1.8857 -1.8857,1.8857 v 0 z"
         id="path7" />
      <line
         class="b"
         x1="11.6115"
         y1="24"
         x2="8.5"
         y2="24"
         id="line7" />
    </g>
  </g>
</svg>
