<?xml version="1.0" encoding="UTF-8" standalone="no"?>
<!-- Uploaded to: SVG Repo, www.svgrepo.com, Generator: SVG Repo Mixer Tools -->

<svg
   width="800px"
   height="800px"
   viewBox="0 0 48 48"
   id="a"
   version="1.1"
   sodipodi:docname="bereal.svg"
   inkscape:version="1.3.2 (091e20e, 2023-11-25, custom)"
   xmlns:inkscape="http://www.inkscape.org/namespaces/inkscape"
   xmlns:sodipodi="http://sodipodi.sourceforge.net/DTD/sodipodi-0.dtd"
   xmlns="http://www.w3.org/2000/svg"
   xmlns:svg="http://www.w3.org/2000/svg">
  <sodipodi:namedview
     id="namedview8"
     pagecolor="#ffffff"
     bordercolor="#000000"
     borderopacity="0.25"
     inkscape:showpageshadow="2"
     inkscape:pageopacity="0.0"
     inkscape:pagecheckerboard="0"
     inkscape:deskcolor="#d1d1d1"
     inkscape:zoom="1.01625"
     inkscape:cx="400"
     inkscape:cy="400"
     inkscape:window-width="1920"
     inkscape:window-height="1009"
     inkscape:window-x="1672"
     inkscape:window-y="-8"
     inkscape:window-maximized="1"
     inkscape:current-layer="a" />
  <defs
     id="defs1">
    <style
       id="style1">.b{fill:none;stroke:#000000;stroke-linecap:round;stroke-linejoin:round;}</style>
  </defs>
  <path
     class="b"
     d="M40.5,5.5H7.5c-1.1046,0-2,.8954-2,2V40.5c0,1.1046,.8954,2,2,2H40.5c1.1046,0,2-.8954,2-2V7.5c0-1.1046-.8954-2-2-2Z"
     id="path1"
     style="fill:#ffffff;fill-opacity:1"
     inkscape:export-filename="bereal.svg"
     inkscape:export-xdpi="96"
     inkscape:export-ydpi="96" />
  <g
     id="g8">
    <g
       id="g2">
      <path
         class="b"
         d="M20.8368,27.7715v-7.5429h2.4694c1.3961,0,2.5278,1.1342,2.5278,2.5332s-1.1317,2.5332-2.5278,2.5332h-2.4694"
         id="path2" />
      <line
         class="b"
         x1="23.3062"
         y1="25.295"
         x2="25.7754"
         y2="27.7696"
         id="line2" />
    </g>
    <path
       class="b"
       d="M18.7569,26.8198c-.3248,.5685-.9369,.9516-1.6385,.9516h0c-1.0415,0-1.8857-.8443-1.8857-1.8857v-1.2257c0-1.0415,.8443-1.8857,1.8857-1.8857h0c1.0415,0,1.8857,.8443,1.8857,1.8857v.6129s-3.7715,0-3.7715,0"
       id="path3" />
    <path
       class="b"
       d="M30.8201,26.8198c-.3248,.5685-.9369,.9516-1.6385,.9516h0c-1.0415,0-1.8857-.8443-1.8857-1.8857v-1.2257c0-1.0415,.8443-1.8857,1.8857-1.8857h0c1.0415,0,1.8857,.8443,1.8857,1.8857v.6129s-3.7715,0-3.7715,0"
       id="path4" />
    <path
       class="b"
       d="M38.2743,20.2285v6.6001c0,.5207,.4221,.9429,.9429,.9429h.2829"
       id="path5" />
    <g
       id="g6">
      <path
         class="b"
         d="M36.5489,25.8857c0,1.0415-.8443,1.8857-1.8857,1.8857h0c-1.0415,0-1.8857-.8443-1.8857-1.8857v-1.2257c0-1.0415,.8443-1.8857,1.8857-1.8857h0c1.0415,0,1.8857,.8443,1.8857,1.8857"
         id="path6" />
      <line
         class="b"
         x1="36.5489"
         y1="27.7715"
         x2="36.5489"
         y2="22.7743"
         id="line6" />
    </g>
    <g
       id="g7">
      <path
         class="b"
         d="M11.6115,24c1.0415,0,1.8857,.8443,1.8857,1.8857s-.8443,1.8857-1.8857,1.8857h-3.1115v-7.5429h3.1115c1.0415,0,1.8857,.8443,1.8857,1.8857s-.8443,1.8857-1.8857,1.8857h0Z"
         id="path7" />
      <line
         class="b"
         x1="11.6115"
         y1="24"
         x2="8.5"
         y2="24"
         id="line7" />
    </g>
  </g>
</svg>
